<!DOCTYPE svg PUBLIC "-//W3C//DTD SVG 1.1//EN" "http://www.w3.org/Graphics/SVG/1.1/DTD/svg11.dtd">

<svg version="1.0" id="Layer_1" xmlns="http://www.w3.org/2000/svg" xmlns:xlink="http://www.w3.org/1999/xlink" width="800px" height="800px" viewBox="0 0 64 64" enable-background="new 0 0 64 64" xml:space="preserve" fill="#5da800" stroke="#5da800">

<g id="SVGRepo_bgCarrier" stroke-width="0"/>

<g id="SVGRepo_tracerCarrier" stroke-linecap="round" stroke-linejoin="round"/>

<g id="SVGRepo_iconCarrier"> <g> <path fill="#5da800" d="M52,24h-6V14c0-7.732-6.268-14-14-14S18,6.268,18,14v10h-6c-2.211,0-4,1.789-4,4v32c0,2.211,1.789,4,4,4h40 c2.211,0,4-1.789,4-4V28C56,25.789,54.211,24,52,24z M20,14c0-6.627,5.373-12,12-12s12,5.373,12,12v10h-4V14c0-4.418-3.582-8-8-8 s-8,3.582-8,8v10h-4V14z M26,14c0-3.313,2.687-6,6-6s6,2.687,6,6v10H26V14z M54,60c0,1.104-0.896,2-2,2H12c-1.104,0-2-0.896-2-2v-4 h44V60z M54,54H10V34h44V54z M54,32H10v-4c0-1.104,0.896-2,2-2h40c1.104,0,2,0.896,2,2V32z"/> <path fill="#5da800" d="M29,44.979V49c0,1.657,1.343,3,3,3s3-1.343,3-3v-4.021c1.209-0.912,2-2.348,2-3.979c0-2.762-2.238-5-5-5 s-5,2.238-5,5C27,42.631,27.791,44.066,29,44.979z M32,38c1.657,0,3,1.343,3,3c0,1.305-0.837,2.403-2,2.816V49c0,0.553-0.447,1-1,1 s-1-0.447-1-1v-5.184c-1.163-0.413-2-1.512-2-2.816C29,39.343,30.343,38,32,38z"/> </g> </g>

</svg>