<?xml version="1.0" encoding="utf-8"?>
<!-- Generator: Adobe Illustrator 25.0.1, SVG Export Plug-In . SVG Version: 6.00 Build 0)  -->
<svg version="1.0" id="katman_1" xmlns="http://www.w3.org/2000/svg" xmlns:xlink="http://www.w3.org/1999/xlink" x="0px" y="0px"
	 viewBox="12 42 300.6 122.6" style="enable-background:new 0 0 300.6 152.6;" xml:space="preserve">
<style type="text/css">
	.st0{fill-rule:evenodd;clip-rule:evenodd;fill:#E52727;}
	.st1{fill-rule:evenodd;clip-rule:evenodd;fill:#F3AE12;}
</style>
<path class="st0" d="M273.8,102.8c0-2.5,2-4.6,4.4-4.6c2.5,0,4.4,2.1,4.4,4.6s-1.9,4.6-4.4,4.6C275.8,107.5,273.8,105.4,273.8,102.8
	z M278.2,106.4c1.9,0,3.3-1.6,3.3-3.5c0-1.9-1.5-3.5-3.3-3.5c-1.9,0-3.3,1.6-3.3,3.5C274.9,104.8,276.4,106.4,278.2,106.4
	L278.2,106.4z M277.6,104.9h-0.9v-4.1h1.7c0.3,0,0.7,0,1,0.2c0.3,0.2,0.5,0.6,0.5,1c0,0.5-0.3,0.9-0.7,1l0.7,1.8h-1l-0.6-1.6h-0.7
	C277.6,103.2,277.6,104.9,277.6,104.9z M277.6,102.6h0.5c0.2,0,0.4,0,0.5-0.1c0.1-0.1,0.2-0.3,0.2-0.5c0-0.1-0.1-0.3-0.2-0.4
	c-0.1-0.1-0.4-0.1-0.5-0.1h-0.5C277.7,101.6,277.6,102.6,277.6,102.6z M210.9,72.1l-1.2,7.9c-2.6-1.4-4.5-1.9-6.6-1.9
	c-5.5,0-9.3,5.6-9.3,13.5c0,5.5,2.6,8.8,6.9,8.8c1.8,0,3.8-0.6,6.3-1.9l-1.3,8.3c-2.7,0.8-4.5,1.1-6.5,1.1c-7.9,0-12.9-6-12.9-15.6
	c0-12.9,6.8-22,16.6-22c1.3,0,2.4,0.1,3.3,0.4l3.1,0.8C210,71.8,210.2,71.8,210.9,72.1z M186.4,77.5c-0.2-0.1-0.5-0.1-0.7-0.1
	c-2.4,0-3.8,1.3-6.1,4.8l0.7-4.5h-6.7l-4.5,29.4h7.4c2.7-18,3.3-21.1,6.9-21.1h0.5c0.7-3.5,1.5-6.1,2.8-8.5
	C186.7,77.5,186.4,77.5,186.4,77.5z M142.4,106.7c-2,0.7-3.6,1-5.3,1c-3.7,0-5.8-2.3-5.8-6.5c0-0.8,0.1-1.7,0.2-2.7l0.5-2.9l0.3-2.3
	l3.2-20.1h7.3l-0.9,4.3h3.8l-1.1,7.1H141L139,97.1c-0.1,0.5-0.1,0.9-0.1,1.2c0,1.5,0.8,2.2,2.5,2.2c0.9,0,1.5-0.1,2-0.3L142.4,106.7
	L142.4,106.7z M113.3,87c0,3.7,1.7,6.3,5.6,8.2c2.9,1.5,3.5,1.9,3.5,3.3c0,1.8-1.3,2.7-4.2,2.7c-2.2,0-4.2-0.3-6.6-1.2l-1,6.8
	l0.3,0.1l1.3,0.3c0.5,0.1,1.1,0.2,1.9,0.3c1.7,0.1,3.1,0.3,4.1,0.3c7.7,0,11.3-3.1,11.3-9.8c0-4-1.5-6.4-5.2-8.2
	c-3.1-1.5-3.4-1.8-3.4-3.2c0-1.6,1.2-2.4,3.6-2.4c1.5,0,3.4,0.2,5.3,0.5l1.1-6.8c-2.1-0.4-4.3-0.6-6.5-0.6
	C116.1,77.1,113.3,81.5,113.3,87z M269.6,107.1h-7l0.3-2.9c-2,2.3-4.1,3.3-6.8,3.3c-5.4,0-8.9-4.9-8.9-12.2c0-9.8,5.5-18.1,12-18.1
	c2.9,0,5,1.3,7.1,4l1.6-10.3h7.3L269.6,107.1L269.6,107.1z M258.7,100.2c3.5,0,5.9-4.1,5.9-9.9c0-3.7-1.4-5.8-3.9-5.8
	c-3.3,0-5.7,4.1-5.7,9.9C254.9,98.2,256.2,100.2,258.7,100.2z M165.7,106.5c-2.5,0.8-5,1.2-7.6,1.2c-8.2,0-12.5-4.5-12.5-13.2
	c0-10.1,5.5-17.5,12.9-17.5c6.1,0,9.9,4.2,9.9,10.7c0,2.1-0.3,4.3-0.9,7.3h-14.7c-0.1,0.5-0.1,0.7-0.1,0.9c0,3.5,2.2,5.2,6.5,5.2
	c2.6,0,5-0.6,7.7-1.9C166.8,99.2,165.7,106.5,165.7,106.5z M161.6,88.9c0.1-0.6,0.1-1.1,0.1-1.5c0-2.4-1.3-3.8-3.5-3.8
	c-2.3,0-4,1.9-4.7,5.3H161.6z M83.7,107.1h-7.3l4.2-27.8l-9.5,27.8h-5l-0.6-27.6l-4.5,27.6h-6.9L60,70.9h10.6l0.3,22.4L78,70.9h11.5
	L83.7,107.1z M102.7,94c-0.8-0.1-1.1-0.1-1.7-0.1c-4.2,0-6.3,1.5-6.3,4.5c0,1.8,1.1,3,2.7,3C100.4,101.3,102.6,98.3,102.7,94z
	 M108.1,107.1h-6.1l0.1-3.1c-1.9,2.5-4.3,3.5-7.7,3.5c-4,0-6.7-3.3-6.7-8c0-7.2,4.8-11.3,12.9-11.3c0.9,0,1.9,0.1,3,0.2
	c0.2-1,0.3-1.4,0.3-1.9c0-1.9-1.3-2.7-4.7-2.7c-2.1,0-4.5,0.3-6.1,0.9L92,85l-0.7,0.2l1-6.6c3.7-1.1,6.1-1.6,8.8-1.6
	c6.3,0,9.7,3,9.7,8.6c0,1.5-0.1,2.5-0.6,5.9l-1.5,10.5l-0.3,1.9l-0.2,1.5l-0.1,1.1C108.2,106.3,108.1,107.1,108.1,107.1z M223.6,94
	c-0.7-0.1-1.1-0.1-1.7-0.1c-4.2,0-6.3,1.5-6.3,4.5c0,1.8,1.1,3,2.7,3C221.3,101.3,223.5,98.3,223.6,94z M228.9,107.1h-6.1l0.1-3.1
	c-1.9,2.5-4.3,3.5-7.7,3.5c-4,0-6.7-3.3-6.7-8c0-7.2,4.8-11.3,12.9-11.3c0.8,0,1.9,0.1,3,0.2c0.2-1,0.3-1.4,0.3-1.9
	c0-1.9-1.3-2.7-4.7-2.7c-2.1,0-4.5,0.3-6.1,0.9l-1.1,0.3l-0.7,0.2l1-6.6c3.7-1.1,6.1-1.6,8.8-1.6c6.3,0,9.7,3,9.7,8.6
	c0,1.5-0.1,2.5-0.6,5.9l-1.5,10.4l-0.2,1.9l-0.2,1.5l-0.1,1L228.9,107.1L228.9,107.1z M249.5,77.5c-0.2-0.1-0.5-0.1-0.7-0.1
	c-2.4,0-3.8,1.3-6.1,4.8l0.7-4.5h-6.7l-4.5,29.4h7.4c2.7-18,3.3-21.1,6.9-21.1h0.5c0.5-3,1.5-5.8,2.8-8.5L249.5,77.5L249.5,77.5z"/>
<path class="st1" d="M218.6,135.6c0,6.7-2.1,10.6-5.3,10.6c-2.4,0.1-3.8-2.6-3.8-6.5c0-4.7,2.1-10,5.5-10
	C217.7,129.7,218.6,132.6,218.6,135.6z M225.9,135.7c0-7.4-3.7-13.2-10.5-13.2c-7.9,0-13.1,7-13.1,17.3c0,7.4,3.1,13.5,10.5,13.5
	C220.3,153.3,225.9,148,225.9,135.7z M204.6,117.4l-1.1,7.9c-2.5-1.4-4.2-1.9-6.1-1.9c-5.1,0-8.7,5.6-8.7,13.5
	c0,5.5,2.4,8.8,6.4,8.8c1.7,0,3.6-0.6,5.9-1.9l-1.2,8.3c-2.5,0.8-4.2,1.1-6.1,1.1c-7.4,0-12.1-6-12.1-15.6c0-12.9,6.4-22,15.5-22
	c1.2,0,2.2,0.1,3.1,0.4l2.8,0.8C203.8,117,204,117.1,204.6,117.4L204.6,117.4z M159.1,122.7c-0.2-0.1-0.5-0.1-0.7-0.1
	c-2.3,0-3.5,1.3-5.7,4.8l0.7-4.5h-6.2l-4.2,29.4h6.9c2.5-18,3.1-21.1,6.4-21.1c0.2,0,0.2,0,0.5,0.1c0.6-3.5,1.5-6.1,2.6-8.5
	L159.1,122.7L159.1,122.7z M248.9,152.1h-6.5l0.3-2.9c-1.9,2.3-3.9,3.3-6.4,3.3c-5,0-8.3-4.9-8.3-12.2c0-9.8,5.1-18.1,11.2-18.1
	c2.7,0,4.7,1.3,6.6,4.1l1.5-10.3h6.8L248.9,152.1L248.9,152.1z M238.7,145.2c3.3,0,5.5-4.1,5.5-9.9c0-3.7-1.3-5.7-3.7-5.7
	c-3.1,0-5.3,4.1-5.3,9.9C235.2,143.2,236.4,145.2,238.7,145.2z M94.6,152c-2.3,0.8-4.7,1.2-7.1,1.2c-7.7,0-11.7-4.5-11.7-13.2
	c0-10.1,5.1-17.5,12-17.5c5.7,0,9.3,4.1,9.3,10.7c0,2.1-0.3,4.3-0.9,7.3H82.6c-0.1,0.5-0.1,0.7-0.1,0.9c0,3.4,2.1,5.1,6.1,5.1
	c2.5,0,4.7-0.6,7.1-1.9L94.6,152z M90.7,134.5c0-0.6,0.1-1.1,0.1-1.5c0-2.4-1.2-3.8-3.3-3.8c-2.2,0-3.7,1.9-4.4,5.3L90.7,134.5
	L90.7,134.5z M176.4,152c-2.3,0.8-4.7,1.2-7.1,1.2c-7.7,0-11.7-4.5-11.7-13.2c0-10.1,5.1-17.5,12-17.5c5.7,0,9.3,4.1,9.3,10.7
	c0,2.1-0.3,4.3-0.9,7.3h-13.7c-0.1,0.5-0.1,0.7-0.1,0.9c0,3.4,2.1,5.1,6.1,5.1c2.5,0,4.7-0.6,7.1-1.9L176.4,152L176.4,152z
	 M172.6,134.5c0.1-0.6,0.1-1.1,0.1-1.5c0-2.4-1.2-3.8-3.3-3.8c-2.2,0-3.7,1.9-4.4,5.3L172.6,134.5L172.6,134.5z M272.4,152
	c-2.3,0.8-4.7,1.2-7.1,1.2c-7.7,0-11.7-4.5-11.7-13.2c0-10.1,5.1-17.5,12.1-17.5c5.7,0,9.3,4.1,9.3,10.7c0,2.1-0.3,4.3-0.9,7.3
	h-13.7c-0.1,0.5-0.1,0.7-0.1,0.9c0,3.4,2.1,5.1,6.1,5.1c2.5,0,4.7-0.6,7.1-1.9L272.4,152L272.4,152z M268.5,134.5
	c0-0.6,0.1-1.1,0.1-1.5c0-2.4-1.2-3.8-3.3-3.8c-2.2,0-3.7,1.9-4.4,5.3L268.5,134.5L268.5,134.5z M74.2,124.1
	c-1.3-0.9-3.2-1.7-5.7-1.7c-2.8,0-5,0.6-5,3.5c0,5.2,10.1,3.3,10.1,14.5c0,10.2-6.7,12.9-12.7,12.9c-2.7,0-5.8-0.9-8.1-1.9l1.7-7.5
	c1.4,1.3,4.1,2.1,6.5,2.1c2.2,0,5.5-0.6,5.5-4.4c0-5.9-10.1-3.7-10.1-14.1c0-9.5,5.9-12.3,11.7-12.3c3.2,0,6.3,0.5,8,1.7L74.2,124.1
	L74.2,124.1z M114.7,152c-1.4,0.7-3.3,1.1-6.1,1.1c-6,0-9.7-6-9.7-13.3c0-9.6,5.4-17.2,13.3-17.2c1.7,0,4.4,0.7,6.5,1.9l-1.5,7
	c-1.5-1-3-1.6-4.6-1.6c-3.7,0-6.3,3.4-6.3,9.4c0,3.5,1.9,6.3,4.9,6.3c1.8,0,3.1-0.4,4.6-1.3L114.7,152L114.7,152z M140.5,144.6
	c-0.4,2.5-0.6,5.1-0.9,7.6H133l0.5-4.7h-0.1c-2.1,3.2-4.2,5.4-8,5.4c-4.1,0-6.4-4.4-6.4-10.1c0-2,0.1-3.1,0.5-6.1l1.9-13.6h7.4
	l-2,13.7c-0.2,1.5-0.5,2.9-0.5,4.5c0,1.7,0.8,3.5,2.8,3.3c3,0,4.8-3.7,5.3-8l2.1-13.5h7.1L140.5,144.6L140.5,144.6z M279.2,151.8
	h-1.1V147h-1.6v-1.1h4.3v1.1h-1.6L279.2,151.8L279.2,151.8z M286.6,151.8h-1.1v-4.9l-1,4.9h-1.1l-1-4.9v4.9h-1.1v-5.9h1.7l0.9,4.7
	h0.1l0.9-4.7h1.6C286.6,145.9,286.6,151.8,286.6,151.8z"/>
</svg>
