<svg viewBox="0 0 383 271" fill="none" xmlns="http://www.w3.org/2000/svg"><path fill-rule="evenodd" clip-rule="evenodd" d="M186.704 2.03815C187.192 3.0292 186.784 4.228 185.793 4.71574L119.351 37.4149C117.299 38.4245 116 40.5121 116 42.7983V96.0175C116 100.39 120.527 103.294 124.5 101.472C124.502 101.471 124.504 101.47 124.506 101.469L242.752 46.2969C249.381 43.2035 256.98 48.0431 256.98 55.359V260.099C256.98 265.622 252.503 270.099 246.98 270.099H183.18C177.657 270.099 173.18 265.622 173.18 260.099V112.379C173.18 111.275 174.075 110.379 175.18 110.379C176.285 110.379 177.18 111.275 177.18 112.379V260.099C177.18 263.413 179.866 266.099 183.18 266.099H246.98C250.294 266.099 252.98 263.413 252.98 260.099V55.359C252.98 50.9695 248.421 48.0657 244.443 49.9217L126.187 105.099L126.176 105.104C119.551 108.149 112 103.309 112 96.0175V42.7983C112 38.9879 114.165 35.5086 117.584 33.826L184.026 1.12683C185.017 0.639087 186.216 1.0471 186.704 2.03815Z" fill="url(#paint0_linear_174_109389)"></path><defs><linearGradient id="paint0_linear_174_109389" x1="230.501" y1="310.099" x2="199.829" y2="-29.2045" gradientUnits="userSpaceOnUse"><stop stop-opacity="0"></stop><stop offset="0.177083" stop-color="#5D0EF5"></stop><stop offset="0.5" stop-color="white"></stop><stop offset="0.822917" stop-color="#5D0EF5"></stop><stop offset="1" stop-opacity="0"></stop></linearGradient></defs></svg>