<svg viewBox="0 0 354 281" fill="none" xmlns="http://www.w3.org/2000/svg"><path fill-rule="evenodd" clip-rule="evenodd" d="M80.7741 4.15799C81.2391 5.1599 80.8039 6.34909 79.802 6.81411L7.47399 40.3843C5.35541 41.3676 4 43.491 4 45.8266V99.1451C4 103.476 8.44908 106.381 12.4143 104.638L139.97 48.5727C144.617 46.5303 149.351 48.4624 152.354 51.6494C155.352 54.8304 157.083 59.7111 155.414 64.3312C153.184 70.5065 151.339 77.0805 149.881 84.0553C146.616 100.886 144.98 118.866 144.98 138C144.98 156.369 146.615 173.841 149.88 190.419C153.384 206.934 159.003 221.396 166.712 233.834C174.635 246.209 185.152 256.112 198.293 263.553C211.346 270.691 227.709 274.32 247.48 274.32C265.485 274.32 280.877 271.195 293.718 265.025C306.593 258.585 317.099 249.559 325.263 237.931L325.268 237.924C333.711 226.005 339.951 211.682 343.955 194.915C347.965 178.123 349.98 159.156 349.98 138C349.98 117.865 347.966 99.4036 343.955 82.6046L343.951 82.5908L343.948 82.5769C340.194 65.8092 334.204 51.4885 326.012 39.5731L326.007 39.5652L326.001 39.5572C317.946 27.596 307.619 18.295 295.002 11.6303C294.73 11.4865 294.41 11.3535 294.105 11.2562C281.532 7.25135 270.654 7.28491 261.314 10.2792C251.964 13.2766 243.992 19.2938 237.33 27.5227C223.963 44.0339 216.035 69.2598 213.072 95.7639C210.113 122.235 212.143 149.671 218.41 170.407C221.545 180.782 225.703 189.354 230.72 195.294C235.715 201.208 241.451 204.4 247.86 204.4C253.002 204.4 257.137 203.017 260.49 200.615C263.863 198.2 266.557 194.672 268.655 190.224C272.875 181.278 274.537 168.926 274.628 155.581C274.81 128.946 268.742 99.3043 265.685 87.5848C265.406 86.516 266.046 85.4236 267.115 85.1448C268.184 84.8659 269.276 85.5063 269.555 86.5751C272.658 98.4695 278.814 128.488 278.628 155.609C278.535 169.143 276.865 182.193 272.273 191.93C269.965 196.823 266.883 200.957 262.819 203.868C258.734 206.793 253.77 208.4 247.86 208.4C239.949 208.4 233.182 204.407 227.664 197.875C222.169 191.368 217.805 182.233 214.581 171.565C208.128 150.215 206.09 122.222 209.097 95.3195C212.101 68.45 220.173 42.358 234.221 25.0058C241.266 16.303 249.855 9.75217 260.093 6.47011C270.341 3.18483 282.078 3.22738 295.319 7.4449C295.838 7.61019 296.378 7.83306 296.87 8.09341C310.074 15.068 320.895 24.8168 329.314 37.316C337.837 49.7153 344.003 64.5201 347.848 81.6887C351.941 98.8328 353.98 117.607 353.98 138C353.98 159.404 351.942 178.69 347.845 195.845C343.743 213.022 337.318 227.831 328.536 240.23C319.983 252.412 308.96 261.876 295.494 268.609L295.481 268.616L295.467 268.623C281.964 275.114 265.948 278.32 247.48 278.32C227.231 278.32 210.158 274.604 196.36 267.055L196.347 267.048L196.335 267.041C182.632 259.284 171.622 248.927 163.335 235.978L163.328 235.966L163.32 235.954C155.329 223.064 149.551 208.149 145.964 191.235L145.961 191.221L145.958 191.207C142.637 174.349 140.98 156.612 140.98 138C140.98 118.633 142.636 100.391 145.957 83.279L145.959 83.265L145.962 83.2509C147.456 76.1022 149.352 69.3419 151.652 62.9725C152.686 60.1096 151.679 56.7655 149.443 54.3928C147.213 52.0262 144.216 51.0757 141.579 52.2346L14.0238 108.3C7.41514 111.205 0 106.364 0 99.1451V45.8266C0 41.9339 2.25902 38.3949 5.78999 36.756L78.118 3.18587C79.1199 2.72085 80.3091 3.15608 80.7741 4.15799ZM63.18 109.4C64.2846 109.4 65.18 110.295 65.18 111.4V263C65.18 266.314 67.8663 269 71.18 269H134.98C138.294 269 140.98 266.314 140.98 263V231C140.98 229.895 141.875 229 142.98 229C144.085 229 144.98 229.895 144.98 231V263C144.98 268.523 140.503 273 134.98 273H71.18C65.6572 273 61.18 268.523 61.18 263V111.4C61.18 110.295 62.0754 109.4 63.18 109.4Z" fill="url(#paint0_linear_174_109387)"></path><defs><linearGradient id="paint0_linear_174_109387" x1="11.8482" y1="296.901" x2="153.941" y2="-105.105" gradientUnits="userSpaceOnUse"><stop offset="0.0488124" stop-opacity="0"></stop><stop offset="0.177083" stop-color="#5D0EF5"></stop><stop offset="0.5" stop-color="white"></stop><stop offset="0.822917" stop-color="#5D0EF5"></stop><stop offset="1" stop-opacity="0"></stop></linearGradient></defs></svg>