<svg viewBox="0 0 383 282" fill="none" xmlns="http://www.w3.org/2000/svg"><path fill-rule="evenodd" clip-rule="evenodd" d="M206.506 4C196.282 4 185.535 5.24685 174.26 7.75237L174.244 7.75604L174.227 7.75943C163.329 9.98853 153.045 14.199 143.366 20.4038C133.753 26.5658 125.333 35.093 118.119 46.0359C112.256 55.0418 108.037 66.4489 105.522 80.3262C104.97 83.3729 107.063 86.3111 110.24 86.884L163.997 96.5779C167.306 97.1745 170.62 94.8564 171.594 91.2577C173.234 85.2049 175.745 80.2863 179.214 76.6245L179.233 76.6049L179.252 76.5858C184.472 71.3658 191.076 68.78 198.906 68.78C206.428 68.78 212.479 71.0813 216.746 75.9168C220.822 80.5367 222.946 85.6807 222.946 91.3C222.946 98.5433 220.788 104.436 216.258 108.697C211.951 112.989 205.661 114.96 197.766 114.96H192.086C188.773 114.96 186.086 117.646 186.086 120.96V157.02C186.086 160.334 188.773 163.02 192.086 163.02H198.827C245.277 159.346 278.202 177.183 290.612 200.73C296.831 212.531 297.836 225.707 292.736 238.046C287.645 250.362 276.565 261.624 259.017 269.868C255.345 271.594 251.078 273.394 246.653 274.839C234.257 278.971 220.36 281.02 204.986 281.02C192.686 281.02 180.39 279.739 168.098 277.178L168.09 277.176C155.96 274.595 144.721 270.075 134.386 263.616L134.361 263.6L134.337 263.584C124.193 256.821 115.638 247.734 108.662 236.366L108.657 236.358L108.651 236.349C102.641 226.332 98.484 214.012 96.1249 199.45C95.2595 194.109 98.9928 189.265 104.206 188.383L160.222 178.899C165.951 177.928 170.955 182.008 172.32 187.268C174.023 193.835 176.769 198.491 180.413 201.472C185.596 205.713 191.85 207.86 199.286 207.86C206.269 207.86 211.482 206.659 214.912 204.183C218.211 201.802 220.166 198.013 220.166 192C220.166 190.895 221.061 190 222.166 190C223.271 190 224.166 190.895 224.166 192C224.166 198.987 221.823 204.128 217.253 207.427C212.814 210.631 206.587 211.86 199.286 211.86C191.016 211.86 183.844 209.447 177.88 204.568C173.387 200.892 170.292 195.382 168.448 188.272C167.507 184.646 164.211 182.28 160.89 182.842L104.874 192.327C101.705 192.863 99.5792 195.76 100.073 198.81C102.372 213.001 106.392 224.805 112.076 234.282C118.774 245.194 126.929 253.833 136.531 260.24C146.456 266.438 157.248 270.78 168.921 273.263C180.947 275.768 192.968 277.02 204.986 277.02C220.01 277.02 233.472 275.017 245.394 271.043L245.406 271.039C249.632 269.659 253.743 267.927 257.316 266.248C274.196 258.317 284.418 247.697 289.039 236.518C293.652 225.36 292.781 213.426 287.073 202.595C275.636 180.894 244.533 163.394 199.065 167.014L198.986 167.02H192.086C186.564 167.02 182.086 162.543 182.086 157.02V120.96C182.086 115.437 186.564 110.96 192.086 110.96H197.766C205.058 110.96 210.16 109.138 213.452 105.846L213.475 105.823L213.498 105.801C217.058 102.464 218.946 97.7242 218.946 91.3C218.946 86.786 217.27 82.5567 213.747 78.5632C210.413 74.7854 205.572 72.78 198.906 72.78C192.054 72.78 186.503 75.0011 182.1 79.3951C179.212 82.4509 176.969 86.713 175.455 92.3034C174.036 97.5425 168.989 101.543 163.287 100.514L109.53 90.8205C104.309 89.8789 100.617 84.9633 101.586 79.613C104.17 65.3551 108.544 53.4106 114.77 43.8486L114.776 43.8393C122.256 32.4912 131.061 23.54 141.207 17.0363C151.283 10.5774 162.02 6.17573 173.409 3.84396C184.928 1.28526 195.962 0 206.506 0C221.889 0 235.323 2.30512 246.758 6.97863C258.355 11.3628 267.966 17.3194 275.536 24.8814C283.313 32.1456 289.052 40.3503 292.714 49.4945C296.608 58.5884 298.566 67.8414 298.566 77.24C298.566 91.5604 294.652 104.026 286.766 114.54L286.759 114.55L286.752 114.559C278.928 124.73 269.356 131.699 258.046 135.382C256.995 135.724 255.867 135.149 255.525 134.099C255.183 133.049 255.757 131.92 256.807 131.578C267.28 128.169 276.198 121.715 283.574 112.13C290.883 102.38 294.566 90.7818 294.566 77.24C294.566 68.4063 292.728 59.6802 289.028 51.0478L289.018 51.0254L289.009 51.0028C285.581 42.4327 280.186 34.6928 272.782 27.7821L272.757 27.7586L272.732 27.7342C265.618 20.62 256.499 14.9345 245.32 10.7109L245.294 10.7014L245.269 10.6911C234.417 6.25151 221.512 4 206.506 4Z" fill="url(#paint0_linear_174_109384)"></path><defs><linearGradient id="paint0_linear_174_109384" x1="152.16" y1="318.696" x2="344.886" y2="16.3364" gradientUnits="userSpaceOnUse"><stop stop-opacity="0"></stop><stop offset="0.177083" stop-color="#5D0EF5"></stop><stop offset="0.5" stop-color="white"></stop><stop offset="0.822917" stop-color="#5D0EF5"></stop><stop offset="1" stop-opacity="0"></stop></linearGradient></defs></svg>