<svg viewBox="0 0 383 272" fill="none" xmlns="http://www.w3.org/2000/svg"><path fill-rule="evenodd" clip-rule="evenodd" d="M214.745 4.52002C212.746 4.52002 210.878 5.51603 209.764 7.1762L101.018 169.192C100.354 170.181 100 171.345 100 172.536V221.38C100 224.694 102.686 227.38 106 227.38H199.82C205.343 227.38 209.82 231.857 209.82 237.38V260.52C209.82 263.834 212.506 266.52 215.82 266.52H279.62C282.934 266.52 285.62 263.834 285.62 260.52V237.38C285.62 231.857 290.097 227.38 295.62 227.38H316.12C317.225 227.38 318.12 228.275 318.12 229.38C318.12 230.485 317.225 231.38 316.12 231.38H295.62C292.306 231.38 289.62 234.066 289.62 237.38V260.52C289.62 266.043 285.143 270.52 279.62 270.52H215.82C210.297 270.52 205.82 266.043 205.82 260.52V237.38C205.82 234.066 203.134 231.38 199.82 231.38H106C100.477 231.38 96 226.903 96 221.38V172.536C96 170.551 96.5907 168.611 97.6969 166.963L206.442 4.94698C208.299 2.18003 211.413 0.52002 214.745 0.52002H279.62C285.143 0.52002 289.62 4.99717 289.62 10.52V154.88C289.62 160.403 285.143 164.88 279.62 164.88H178.873C174.063 164.88 171.208 159.504 173.902 155.52L198.849 118.618C202.163 113.717 209.82 116.062 209.82 121.979V136.52C209.82 137.625 208.925 138.52 207.82 138.52C206.715 138.52 205.82 137.625 205.82 136.52V121.979C205.82 120.006 203.268 119.225 202.163 120.858L177.216 157.76C176.318 159.088 177.269 160.88 178.873 160.88H279.62C282.934 160.88 285.62 158.194 285.62 154.88V10.52C285.62 7.20631 282.934 4.52002 279.62 4.52002H214.745Z" fill="url(#paint0_linear_174_109386)"></path><defs><linearGradient id="paint0_linear_174_109386" x1="328.613" y1="283.023" x2="174.544" y2="-34.0871" gradientUnits="userSpaceOnUse"><stop stop-opacity="0"></stop><stop offset="0.177083" stop-color="#5D0EF5"></stop><stop offset="0.5" stop-color="white"></stop><stop offset="0.822917" stop-color="#5D0EF5"></stop><stop offset="1" stop-opacity="0"></stop></linearGradient></defs></svg>