<svg viewBox="0 0 383 277" fill="none" xmlns="http://www.w3.org/2000/svg"><path fill-rule="evenodd" clip-rule="evenodd" d="M114.187 2.84998C114.187 1.74541 115.083 0.849976 116.187 0.849976H279.567C285.09 0.849976 289.567 5.32713 289.567 10.85V67.05C289.567 72.5728 285.09 77.05 279.567 77.05H124.187C120.873 77.05 118.187 79.7363 118.187 83.05V140.77C118.187 144.084 120.873 146.77 124.187 146.77H189.907C202.055 146.77 211.586 149.349 218.168 154.834C224.716 160.291 228.007 167.446 228.007 176.13C228.007 185.629 225.358 193.287 219.821 198.824C214.575 204.071 207.703 206.63 199.407 206.63C191.667 206.63 184.679 204.487 178.505 200.192L178.481 200.175L178.458 200.158C173.866 196.764 170.651 191.781 168.72 185.387C167.652 181.846 164.489 179.527 161.259 179.969L105.051 187.66C101.725 188.116 99.4889 191.163 100.105 194.322C102.837 208.316 107.25 219.978 113.294 229.365C120.762 240.312 129.315 248.975 138.941 255.396C148.62 261.598 159.037 265.937 170.201 268.418C181.472 270.922 192.346 272.17 202.827 272.17C219.105 272.17 233.43 269.917 245.833 265.454C258.279 260.723 268.543 254.399 276.675 246.514C285.082 238.355 291.38 228.845 295.582 217.969L295.589 217.951L295.596 217.933C300.051 207.043 302.287 195.269 302.287 182.59C302.287 170.87 300.667 159.797 297.437 149.361C294.249 139.062 288.613 130.111 280.498 122.488L280.475 122.466L280.453 122.444C272.628 114.619 261.787 108.425 247.815 103.934L247.795 103.927L247.774 103.92C234.124 99.2047 216.631 96.81 195.227 96.81C194.123 96.81 193.227 95.9146 193.227 94.81C193.227 93.7054 194.123 92.81 195.227 92.81C216.879 92.81 234.847 95.2262 249.06 100.133C263.439 104.757 274.877 111.22 283.259 119.594C291.852 127.672 297.862 137.207 301.258 148.179C304.614 159.023 306.287 170.497 306.287 182.59C306.287 195.743 303.966 208.03 299.306 219.429C294.895 230.839 288.275 240.829 279.46 249.385L279.459 249.386C270.875 257.71 260.117 264.305 247.238 269.2L247.221 269.206L247.205 269.212C234.278 273.865 219.475 276.17 202.827 276.17C192.028 276.17 180.862 274.884 169.333 272.322C157.703 269.738 146.845 265.213 136.768 258.754L136.753 258.744L136.738 258.734C126.617 251.987 117.7 242.927 109.975 231.597L109.96 231.575L109.946 231.553C103.558 221.641 98.9859 209.467 96.1796 195.089C95.0963 189.539 99.0441 184.445 104.509 183.697L160.717 176.006C166.315 175.24 171.044 179.243 172.55 184.231C174.284 189.976 177.068 194.148 180.813 196.925C186.286 200.725 192.464 202.63 199.407 202.63C206.818 202.63 212.613 200.376 216.993 195.996C221.589 191.399 224.007 184.871 224.007 176.13C224.007 168.6 221.218 162.583 215.607 157.906C210.029 153.258 201.573 150.77 189.907 150.77H124.187C118.664 150.77 114.187 146.293 114.187 140.77V83.05C114.187 77.5271 118.664 73.05 124.187 73.05H279.567C282.881 73.05 285.567 70.3637 285.567 67.05V10.85C285.567 7.53627 282.881 4.84998 279.567 4.84998H116.187C115.083 4.84998 114.187 3.95455 114.187 2.84998Z" fill="url(#paint0_linear_174_109388)"></path><defs><linearGradient id="paint0_linear_174_109388" x1="303.817" y1="306.844" x2="99.9204" y2="-44.5429" gradientUnits="userSpaceOnUse"><stop stop-opacity="0"></stop><stop offset="0.177083" stop-color="#5D0EF5"></stop><stop offset="0.5" stop-color="white"></stop><stop offset="0.822917" stop-color="#5D0EF5"></stop><stop offset="1" stop-opacity="0"></stop></linearGradient></defs></svg>