<svg viewBox="0 0 383 277" fill="none" xmlns="http://www.w3.org/2000/svg"><path fill-rule="evenodd" clip-rule="evenodd" d="M192.33 4.84998C190.328 4.84998 188.459 5.84772 187.345 7.51028L138.812 79.9473C138.81 79.9499 138.809 79.9525 138.807 79.9551C133.5 88.0428 128.446 96.0028 123.645 103.835L123.638 103.848L123.63 103.86C118.864 111.384 114.729 119.029 111.223 126.793C107.727 134.533 104.981 142.522 102.984 150.761L102.982 150.768L102.98 150.775C100.997 158.709 100 167.159 100 176.13C100 190.1 102.244 202.901 106.708 214.555C111.166 226.195 117.719 236.335 126.374 244.996C135.273 253.395 146.175 260.095 159.116 265.075C172.279 269.79 187.489 272.17 204.78 272.17C223.082 272.17 238.775 269.538 251.908 264.337C265.12 258.85 275.895 251.774 284.285 243.136L284.296 243.126L284.306 243.116C292.978 234.444 299.273 224.683 303.22 213.827L303.225 213.815L303.229 213.803C307.456 202.613 309.56 191.452 309.56 180.31C309.56 167.614 307.445 156.226 303.253 146.116C299.046 135.971 293.25 127.475 285.875 120.592L285.85 120.569L285.826 120.544C278.698 113.416 270.084 107.995 259.953 104.288L259.945 104.285L259.938 104.283C253.087 101.714 245.874 100.031 238.292 99.2387C237.194 99.1239 236.396 98.1402 236.511 97.0416C236.626 95.943 237.609 95.1455 238.708 95.2604C246.612 96.0865 254.156 97.8432 261.335 100.534C271.962 104.424 281.071 110.14 288.63 117.691C296.443 124.991 302.545 133.967 306.947 144.584C311.369 155.247 313.56 167.166 313.56 180.31C313.56 191.964 311.359 203.598 306.976 215.205C302.818 226.633 296.197 236.878 287.144 245.934C278.313 255.022 267.056 262.38 253.427 268.037L253.412 268.043L253.397 268.049C239.68 273.484 223.458 276.17 204.78 276.17C187.12 276.17 171.431 273.739 157.745 268.833L157.723 268.825L157.702 268.817C144.316 263.668 132.938 256.697 123.607 247.884L123.586 247.864L123.566 247.844C114.497 238.776 107.631 228.15 102.972 215.985C98.3155 203.826 96 190.534 96 176.13C96 166.864 97.0294 158.089 99.098 149.812C101.154 141.333 103.98 133.111 107.577 125.147C111.162 117.209 115.385 109.404 120.243 101.732C125.065 93.8645 130.14 85.8713 135.468 77.7527L135.473 77.7447L184.022 5.28382C185.878 2.51289 188.994 0.849976 192.33 0.849976H260.114C267.964 0.849976 272.806 9.51615 268.165 16.0652C262.104 24.617 255.067 33.9289 247.635 43.7643C235.608 59.6799 222.546 76.966 210.906 94.6192C192.081 123.17 177.52 151.937 177.52 176.13C177.52 185.408 179.955 192.327 184.568 197.171C189.16 201.992 195.794 204.53 204.78 204.53C213.766 204.53 220.4 201.992 224.992 197.171C232.802 188.97 233.759 178.738 230.116 170.245C226.454 161.71 218.135 154.923 207.301 153.84C206.202 153.73 205.4 152.75 205.51 151.651C205.62 150.552 206.6 149.75 207.699 149.86C220.028 151.093 229.575 158.839 233.792 168.668C238.026 178.537 236.871 190.497 227.888 199.929C222.347 205.748 214.541 208.53 204.78 208.53C195.019 208.53 187.213 205.748 181.672 199.929C176.152 194.133 173.52 186.106 173.52 176.13C173.52 150.625 188.745 120.963 207.566 92.4174C219.24 74.7129 232.506 57.152 244.613 41.1241C252.019 31.3207 258.991 22.0908 264.901 13.7523C267.563 9.99644 264.895 4.84998 260.114 4.84998H192.33Z" fill="url(#paint0_linear_174_109381)"></path><defs><linearGradient id="paint0_linear_174_109381" x1="102.994" y1="294.346" x2="309.636" y2="-6.77254" gradientUnits="userSpaceOnUse"><stop offset="0.0488124" stop-opacity="0"></stop><stop offset="0.177083" stop-color="#5D0EF5"></stop><stop offset="0.5" stop-color="white"></stop><stop offset="0.822917" stop-color="#5D0EF5"></stop><stop offset="1" stop-opacity="0"></stop></linearGradient></defs></svg>