<svg viewBox="0 0 383 271" fill="none" xmlns="http://www.w3.org/2000/svg"><path fill-rule="evenodd" clip-rule="evenodd" d="M96 10.01C96 4.48717 100.477 0.0100098 106 0.0100098H293.32C294.425 0.0100098 295.32 0.90544 295.32 2.01001C295.32 3.11458 294.425 4.01001 293.32 4.01001H106C102.686 4.01001 100 6.6963 100 10.01V66.21C100 69.5237 102.686 72.21 106 72.21H278.237C285.268 72.21 290.104 79.2755 287.558 85.8302L218.506 263.63C217.013 267.476 213.311 270.01 209.185 270.01H139.987C132.862 270.01 128.023 262.771 130.746 256.188L195.252 100.246C195.674 99.2248 196.844 98.7397 197.865 99.1619C198.885 99.5841 199.37 100.754 198.948 101.774L134.442 257.717C132.808 261.667 135.712 266.01 139.987 266.01H209.185C211.66 266.01 213.882 264.49 214.778 262.182L283.83 84.3821C285.357 80.4493 282.456 76.21 278.237 76.21H106C100.477 76.21 96 71.7328 96 66.21V10.01Z" fill="url(#paint0_linear_174_109383)"></path><defs><linearGradient id="paint0_linear_174_109383" x1="102.572" y1="287.794" x2="309.845" y2="6.02669" gradientUnits="userSpaceOnUse"><stop offset="0.0488124" stop-opacity="0"></stop><stop offset="0.177083" stop-color="#5D0EF5"></stop><stop offset="0.5" stop-color="white"></stop><stop offset="0.822917" stop-color="#5D0EF5"></stop><stop offset="1" stop-opacity="0"></stop></linearGradient></defs></svg>