<svg viewBox="0 0 383 282" fill="none" xmlns="http://www.w3.org/2000/svg"><path fill-rule="evenodd" clip-rule="evenodd" d="M205.54 4C189.765 4 176.084 6.2541 164.455 10.7077L164.444 10.7119L164.433 10.716C152.978 14.9495 143.455 20.5284 135.821 27.4242L135.807 27.4363L135.794 27.4482C128.149 34.1066 122.511 41.7193 118.838 50.2878C115.136 58.9277 113.3 67.5272 113.3 76.1C113.3 83.5263 114.291 90.0101 116.229 95.583C120.037 106.532 129.028 114.662 140.793 121.4C151.922 127.774 165.254 132.75 178.475 137.685C179.237 137.97 179.998 138.254 180.758 138.538C194.614 143.717 208.249 148.953 218.405 155.793C228.617 162.67 235.66 171.413 235.66 183.64C235.66 193.162 232.869 200.733 227.022 206.023L227.018 206.027C221.505 210.988 214.277 213.38 205.54 213.38C193.118 213.38 184.033 207.614 179.075 198.904C174.159 190.266 173.411 178.942 177.103 167.868C177.452 166.82 178.585 166.253 179.632 166.603C180.68 166.952 181.247 168.085 180.897 169.132C177.501 179.323 178.291 189.439 182.552 196.925C186.771 204.338 194.5 209.38 205.54 209.38C213.521 209.38 219.718 207.213 224.338 203.057C229.132 198.72 231.66 192.358 231.66 183.64C231.66 173.274 225.807 165.6 216.171 159.111C206.478 152.583 193.313 147.501 179.358 142.285C178.567 141.989 177.774 141.693 176.979 141.396C163.85 136.497 150.229 131.414 138.805 124.871C126.682 117.927 116.72 109.17 112.451 96.897C110.336 90.8166 109.3 83.8737 109.3 76.1C109.3 66.9394 111.264 57.8057 115.162 48.7122C119.087 39.5526 125.098 31.4625 133.153 24.4437C141.22 17.1608 151.196 11.345 163.036 6.96811C175.218 2.30453 189.4 0 205.54 0C221.673 0 235.73 2.30234 247.665 6.96812C259.751 11.3425 269.855 17.1567 277.927 24.4436C285.982 31.4625 291.993 39.5525 295.918 48.7122C299.816 57.8057 301.78 66.9394 301.78 76.1C301.78 83.8737 300.744 90.8166 298.629 96.897C296.513 102.982 291.971 110.534 288.621 115.171C287.975 116.066 286.724 116.268 285.829 115.621C284.934 114.975 284.732 113.724 285.379 112.829C288.616 108.346 292.914 101.152 294.851 95.583C296.789 90.0101 297.78 83.5263 297.78 76.1C297.78 67.5272 295.945 58.9277 292.242 50.2878C288.569 41.7193 282.931 34.1066 275.286 27.4482L275.273 27.4363L275.259 27.4242C267.632 20.5351 257.99 14.9562 246.28 10.7208L246.255 10.7119L246.231 10.7025C234.864 6.25457 221.316 4 205.54 4ZM186.144 70.6396C190.449 65.4729 197.069 63.08 205.54 63.08C214.828 63.08 222.222 67.0746 226.575 73.4475C230.911 79.7969 232.088 88.2957 229.413 97.0823C229.092 98.139 227.974 98.735 226.918 98.4133C225.861 98.0917 225.265 96.9744 225.587 95.9177C227.956 88.1321 226.835 80.921 223.271 75.7034C219.724 70.5093 213.616 67.08 205.54 67.08C197.798 67.08 192.511 69.2471 189.216 73.2004C185.737 77.3758 183.98 82.3607 183.98 88.26C183.98 97.8324 189.168 104.733 197.836 110.273C206.581 115.862 218.596 119.874 231.634 123.618C235.058 124.602 238.553 125.567 242.066 126.537C251.813 129.228 261.703 131.958 270.613 135.231C282.703 139.673 293.435 145.259 299.825 153.515C304.53 159.27 308.177 165.922 310.777 173.448C313.656 180.792 315.08 188.885 315.08 197.7C315.08 209.129 312.74 219.929 308.056 230.078C303.359 240.255 296.321 249.106 286.985 256.629C277.885 264.166 266.502 270.099 252.891 274.464C239.224 278.848 223.43 281.02 205.54 281.02C187.65 281.02 171.857 278.848 158.189 274.464C144.575 270.098 133.071 264.166 123.725 256.638L123.715 256.629L123.704 256.62C114.621 249.094 107.717 240.245 103.024 230.078C98.3398 219.929 96 209.129 96 197.7C96 178.377 104.206 155.465 118.086 141.586C118.867 140.805 120.133 140.805 120.914 141.586C121.695 142.367 121.695 143.633 120.914 144.414C107.89 157.438 100 179.279 100 197.7C100 208.565 102.22 218.791 106.656 228.402C111.082 237.991 117.6 246.366 126.245 253.531C135.137 260.691 146.177 266.411 159.411 270.656C172.597 274.885 187.963 277.02 205.54 277.02C223.117 277.02 238.483 274.885 251.669 270.656C264.906 266.41 275.812 260.692 284.444 253.54L284.455 253.531L284.465 253.523C293.364 246.354 300.003 237.981 304.424 228.402C308.86 218.791 311.08 208.565 311.08 197.7C311.08 189.305 309.723 181.703 307.039 174.871L307.023 174.832L307.009 174.792C304.547 167.651 301.111 161.403 296.712 156.026L296.694 156.005L296.677 155.983C291.015 148.655 281.194 143.38 269.233 138.986C260.492 135.774 250.845 133.111 241.15 130.434C237.602 129.455 234.048 128.474 230.529 127.463C217.51 123.724 204.974 119.581 195.682 113.643C186.314 107.656 179.98 99.6577 179.98 88.26C179.98 81.4926 182.023 75.5842 186.144 70.6396Z" fill="url(#paint0_linear_174_109385)"></path><defs><linearGradient id="paint0_linear_174_109385" x1="113.996" y1="334.998" x2="327.628" y2="8.06438" gradientUnits="userSpaceOnUse"><stop offset="0.0488124" stop-opacity="0"></stop><stop offset="0.177083" stop-color="#5D0EF5"></stop><stop offset="0.5" stop-color="white"></stop><stop offset="0.822917" stop-color="#5D0EF5"></stop><stop offset="1" stop-opacity="0"></stop></linearGradient></defs></svg>