<svg viewBox="0 0 383 277" fill="none" xmlns="http://www.w3.org/2000/svg"><path fill-rule="evenodd" clip-rule="evenodd" d="M217.67 272.03C219.672 272.03 221.541 271.032 222.655 269.37L271.188 196.933C271.19 196.93 271.191 196.927 271.193 196.925C276.5 188.837 281.554 180.877 286.355 173.045L286.362 173.032L286.37 173.02C291.136 165.496 295.271 157.851 298.777 150.087C302.273 142.347 305.019 134.358 307.016 126.119L307.018 126.112L307.02 126.105C309.003 118.171 310 109.721 310 100.75C310 86.7804 307.756 73.9793 303.292 62.3253C298.834 50.6854 292.281 40.5447 283.626 31.8844C274.727 23.485 263.825 16.7851 250.884 11.805C237.721 7.08969 222.511 4.70999 205.22 4.70999C186.918 4.70999 171.225 7.34229 158.092 12.5433C144.88 18.0297 134.105 25.1064 125.715 33.7436L125.704 33.754L125.694 33.7642C117.022 42.4363 110.727 52.1971 106.78 63.0535L106.775 63.0652L106.771 63.0768C102.544 74.2666 100.44 85.4277 100.44 96.57C100.44 109.266 102.555 120.654 106.747 130.764C110.954 140.909 116.75 149.405 124.125 156.288L124.15 156.311L124.174 156.336C131.302 163.464 139.916 168.885 150.047 172.592L150.055 172.595L150.062 172.597C156.913 175.166 164.126 176.849 171.708 177.641C172.806 177.756 173.604 178.74 173.489 179.838C173.374 180.937 172.391 181.734 171.292 181.62C163.388 180.794 155.844 179.037 148.665 176.346C138.038 172.456 128.929 166.74 121.37 159.189C113.557 151.889 107.455 142.913 103.053 132.296C98.6313 121.633 96.44 109.714 96.44 96.57C96.44 84.9164 98.6414 73.2816 103.024 61.6755C107.182 50.2472 113.803 40.0016 122.856 30.9458C131.687 21.8578 142.944 14.5001 156.573 8.8428L156.588 8.83661L156.603 8.83063C170.32 3.39569 186.542 0.709991 205.22 0.709991C222.88 0.709991 238.569 3.14108 252.255 8.0473L252.277 8.05505L252.298 8.06329C265.684 13.2119 277.062 20.1827 286.393 28.996L286.414 29.0156L286.434 29.0358C295.503 38.1044 302.369 48.7303 307.028 60.8947C311.684 73.054 314 86.3463 314 100.75C314 110.016 312.971 118.791 310.902 127.068C308.846 135.547 306.02 143.769 302.423 151.733C298.838 159.671 294.615 167.476 289.757 175.148C284.935 183.016 279.86 191.009 274.532 199.127L274.527 199.135L225.978 271.596C224.122 274.367 221.006 276.03 217.67 276.03H149.886C142.036 276.03 137.194 267.364 141.835 260.815C147.896 252.263 154.933 242.951 162.365 233.116C174.392 217.2 187.454 199.914 199.094 182.261C217.919 153.71 232.48 124.943 232.48 100.75C232.48 91.4725 230.045 84.5533 225.432 79.7093C220.84 74.8881 214.206 72.35 205.22 72.35C196.234 72.35 189.6 74.8881 185.008 79.7093C177.198 87.9101 176.241 98.1423 179.884 106.635C183.546 115.17 191.865 121.957 202.699 123.04C203.798 123.15 204.6 124.13 204.49 125.229C204.38 126.328 203.4 127.13 202.301 127.02C189.972 125.787 180.425 118.041 176.208 108.212C171.974 98.3425 173.129 86.383 182.112 76.9507C187.653 71.132 195.459 68.35 205.22 68.35C214.981 68.35 222.787 71.132 228.328 76.9507C233.848 82.7467 236.48 90.7742 236.48 100.75C236.48 126.255 221.255 155.917 202.434 184.463C190.76 202.167 177.494 219.728 165.387 235.756C157.981 245.559 151.009 254.789 145.099 263.128C142.437 266.884 145.105 272.03 149.886 272.03H217.67Z" fill="url(#paint0_linear_174_109380)"></path><defs><linearGradient id="paint0_linear_174_109380" x1="307.006" y1="-17.4661" x2="100.364" y2="283.653" gradientUnits="userSpaceOnUse"><stop offset="0.0488124" stop-opacity="0"></stop><stop offset="0.177083" stop-color="#5D0EF5"></stop><stop offset="0.5" stop-color="white"></stop><stop offset="0.822917" stop-color="#5D0EF5"></stop><stop offset="1" stop-opacity="0"></stop></linearGradient></defs></svg>